<svg xmlns="http://www.w3.org/2000/svg" xmlns:svg="http://www.w3.org/2000/svg" xmlns:xlink="http://www.w3.org/1999/xlink" id="svg8498" width="16" height="16" version="1.1"><defs id="defs8500"><linearGradient id="linearGradient3078" x1="32.892" x2="36.358" y1="8.059" y2="5.457" gradientTransform="matrix(0.34972769,0,0,0.35610773,-1.348519,0.29391874)" gradientUnits="userSpaceOnUse" xlink:href="#linearGradient8589"/><linearGradient id="linearGradient8589"><stop id="stop8591" offset="0" style="stop-color:#fefefe;stop-opacity:1"/><stop id="stop8593" offset="1" style="stop-color:#cbcbcb;stop-opacity:1"/></linearGradient><radialGradient id="radialGradient3085" cx="102" cy="112.305" r="139.559" gradientTransform="matrix(0.12846887,0,0,-0.14049355,-1.243349,17.721389)" gradientUnits="userSpaceOnUse" xlink:href="#XMLID_8_"/><radialGradient id="XMLID_8_" cx="102" cy="112.305" r="139.559" gradientUnits="userSpaceOnUse"><stop id="stop41" offset="0" style="stop-color:#b7b8b9;stop-opacity:1"/><stop id="stop47" offset=".189" style="stop-color:#ececec;stop-opacity:1"/><stop id="stop49" offset=".257" style="stop-color:#fafafa;stop-opacity:0"/><stop id="stop51" offset=".301" style="stop-color:#fff;stop-opacity:0"/><stop id="stop53" offset=".531" style="stop-color:#fafafa;stop-opacity:0"/><stop id="stop55" offset=".845" style="stop-color:#ebecec;stop-opacity:0"/><stop id="stop57" offset="1" style="stop-color:#e1e2e3;stop-opacity:0"/></radialGradient><linearGradient id="linearGradient7360" x1="-51.786" x2="-51.786" y1="50.786" y2="2.906" gradientTransform="matrix(0.25378586,0,0,0.30501865,19.128981,-0.68547126)" gradientUnits="userSpaceOnUse" xlink:href="#linearGradient3104-9"/><linearGradient id="linearGradient3104-9"><stop id="stop3106-5" offset="0" style="stop-color:#000;stop-opacity:.33950618"/><stop id="stop3108-5" offset="1" style="stop-color:#000;stop-opacity:.24691358"/></linearGradient><linearGradient id="linearGradient7363" x1="24" x2="24" y1="6.205" y2="41.59" gradientTransform="matrix(0.24324324,0,0,0.35135133,2.162161,-0.43242126)" gradientUnits="userSpaceOnUse" xlink:href="#linearGradient3977"/><linearGradient id="linearGradient3977"><stop id="stop3979" offset="0" style="stop-color:#fff;stop-opacity:1"/><stop id="stop3981" offset=".029" style="stop-color:#fff;stop-opacity:.23529412"/><stop id="stop3983" offset=".972" style="stop-color:#fff;stop-opacity:.15686275"/><stop id="stop3985" offset="1" style="stop-color:#fff;stop-opacity:.39215687"/></linearGradient><linearGradient id="linearGradient3600"><stop id="stop3602" offset="0" style="stop-color:#f4f4f4;stop-opacity:1"/><stop id="stop3604" offset="1" style="stop-color:#dbdbdb;stop-opacity:1"/></linearGradient><linearGradient id="linearGradient8496" x1="25.132" x2="25.132" y1=".985" y2="47.013" gradientTransform="matrix(0.28571361,0,0,0.30419701,1.1428709,0.23260874)" gradientUnits="userSpaceOnUse" xlink:href="#linearGradient3600"/></defs><metadata id="metadata8503"/><g id="layer1"><path id="path4160" d="m 3.000001,1.0000087 c 2.29151,0 6.35344,8.9e-4 6.35344,8.9e-4 l 3.64655,3.2679703 10e-6,10.73114 c 0,0 -6.66667,0 -10,0 0,-4.66667 0,-9.33333 0,-14.0000003 z" style="fill:url(#linearGradient8496);fill-opacity:1;stroke:none;display:inline"/><path id="rect6741-1" d="m 12.500001,14.500009 -9,0 0,-13 5.49894,0 3.50106,3.33947 z" style="fill:none;stroke:url(#linearGradient7363);stroke-width:1;stroke-linecap:round;stroke-linejoin:miter;stroke-miterlimit:4;stroke-opacity:1;stroke-dasharray:none;stroke-dashoffset:0"/><path id="path4160-8" d="m 2.499961,0.49997874 6.76766,5.1e-4 c 0.61416,0 4.23241,2.73141026 4.23241,3.88354026 l 10e-6,11.11601 c 0,0 -7.33339,0 -11.00008,0 0,-5.00002 0,-15.00006026 0,-15.00006026 z" style="fill:none;stroke:url(#linearGradient7360);stroke-width:.99992192;stroke-linecap:butt;stroke-linejoin:round;stroke-miterlimit:4;stroke-opacity:1;stroke-dasharray:none;stroke-dashoffset:0;display:inline"/><path id="path4191" d="m 9.326881,1.0123287 3.65217,3.1875403 c 0,11.15219 -12.05670008,-3.1875403 -3.65217,-3.1875403 z" style="fill:url(#radialGradient3085);fill-opacity:1"/><path id="path4474-4-2" d="m 6.172041,1.0126387 c 1.11697,0 0.82796,4.9873703 0.82796,4.9873703 0,0 6.1005,-0.69597 6.1005,0.8853 0,-0.38528 -0.0846,-2.03569 -0.1616,-2.15591 -0.55326,-0.86374 -3.68844,-3.37544 -4.55138,-3.62946 -1.21584,-0.12804026 -2.21548,-0.0873 -2.21548,-0.0873 z" style="opacity:.05;fill:#000;fill-opacity:1;fill-rule:evenodd;stroke:none;display:inline"/><path id="path4474-4" d="m 7.000001,0.98754874 c 1.11697,0 1,4.01246026 1,4.01246026 0,0 5.01089,-0.58127 5.01089,1 0,-0.38528 0.0301,-1.8063 -0.0469,-1.92652 -0.55326,-0.86374 -2.94292,-2.80197 -3.80586,-3.0559903 -0.69408,-0.058 -2.15813,-0.0299 -2.15813,-0.0299 z" style="opacity:.12000002;fill:#000;fill-opacity:1;fill-rule:evenodd;stroke:none;display:inline"/><path id="path4474" d="m 8.000001,0.98754874 c 1.11697,0 1,3.01246026 1,3.01246026 0,0 4.01089,-0.58127 4.01089,1 0,-0.38528 0.0301,-0.8063 -0.0469,-0.92652 -0.55326,-0.86374 -2.94292,-2.80197 -3.80586,-3.0559903 -0.17779,-0.005 -0.98055,-0.02 -1.15813,-0.0299 z" style="fill:url(#linearGradient3078);fill-opacity:1;fill-rule:evenodd;stroke:none;display:inline"/></g></svg>