<svg xmlns="http://www.w3.org/2000/svg" xmlns:svg="http://www.w3.org/2000/svg" xmlns:xlink="http://www.w3.org/1999/xlink" id="svg3901" width="48" height="48" version="1.1"><defs id="defs3903"><linearGradient id="linearGradient6129"><stop id="stop6121" offset="0" style="stop-color:#fff;stop-opacity:1"/><stop id="stop6123" offset=".549" style="stop-color:#fff;stop-opacity:.23529412"/><stop id="stop6125" offset="1" style="stop-color:#fff;stop-opacity:.15686275"/><stop id="stop6127" offset="1" style="stop-color:#fff;stop-opacity:.39215687"/></linearGradient><linearGradient id="linearGradient4053"><stop style="stop-color:#000;stop-opacity:1" id="stop4049" offset="0"/><stop style="stop-color:#000;stop-opacity:0" id="stop4051" offset="1"/></linearGradient><linearGradient id="linearGradient3403"><stop id="stop3405" offset="0" style="stop-color:#fff;stop-opacity:1"/><stop id="stop3407" offset="0" style="stop-color:#fff;stop-opacity:.23529412"/><stop id="stop3409" offset="1" style="stop-color:#fff;stop-opacity:.15686275"/><stop id="stop3411" offset="1" style="stop-color:#fff;stop-opacity:.39215687"/></linearGradient><linearGradient id="linearGradient3600"><stop style="stop-color:#f4f4f4;stop-opacity:1" id="stop3602" offset="0"/><stop style="stop-color:#dbdbdb;stop-opacity:1" id="stop3604" offset="1"/></linearGradient><linearGradient id="linearGradient5060"><stop style="stop-color:#000;stop-opacity:1" id="stop5062" offset="0"/><stop style="stop-color:#000;stop-opacity:0" id="stop5064" offset="1"/></linearGradient><linearGradient id="linearGradient5048"><stop style="stop-color:#000;stop-opacity:0" id="stop5050" offset="0"/><stop style="stop-color:#000;stop-opacity:1" id="stop5056" offset=".5"/><stop style="stop-color:#000;stop-opacity:0" id="stop5052" offset="1"/></linearGradient><linearGradient id="linearGradient3104-6"><stop id="stop3106-3" offset="0" style="stop-color:#000;stop-opacity:.31782946"/><stop id="stop3108-9" offset="1" style="stop-color:#000;stop-opacity:.24031007"/></linearGradient><linearGradient id="linearGradient3106" x1="24" x2="24" y1="5.94" y2="42.111" gradientTransform="matrix(0.89189189,0,0,1.1351351,2.5945999,-4.7432314)" gradientUnits="userSpaceOnUse" xlink:href="#linearGradient3403"/><linearGradient id="linearGradient3109" x1="25.132" x2="25.132" y1=".985" y2="47.013" gradientTransform="matrix(0.97142632,0,0,0.93431938,0.68576678,-1.3569996)" gradientUnits="userSpaceOnUse" xlink:href="#linearGradient3600"/><radialGradient id="radialGradient3112" cx="605.714" cy="486.648" r="117.143" fx="605.714" fy="486.648" gradientTransform="matrix(0.02303995,0,0,0.01470022,26.360882,37.040176)" gradientUnits="userSpaceOnUse" xlink:href="#linearGradient5060"/><radialGradient id="radialGradient3115" cx="605.714" cy="486.648" r="117.143" fx="605.714" fy="486.648" gradientTransform="matrix(-0.02303994,0,0,0.01470022,21.62311,37.040176)" gradientUnits="userSpaceOnUse" xlink:href="#linearGradient5060"/><linearGradient id="linearGradient3118" x1="302.857" x2="302.857" y1="366.648" y2="609.505" gradientTransform="matrix(0.06732488,0,0,0.01470022,-0.3411391,37.040146)" gradientUnits="userSpaceOnUse" xlink:href="#linearGradient5048"/><linearGradient id="linearGradient3170" x1="-51.786" x2="-51.786" y1="50.786" y2="2.906" gradientTransform="matrix(0.80749686,0,0,0.89471714,59.410232,-2.9773433)" gradientUnits="userSpaceOnUse" xlink:href="#linearGradient3104-6"/><linearGradient id="linearGradient3078" x1="32.892" x2="36.358" y1="8.059" y2="5.457" gradientTransform="matrix(1.1125274,0,0,1.0455455,-4.6975076,-1.0365234)" gradientUnits="userSpaceOnUse" xlink:href="#linearGradient8589"/><linearGradient id="linearGradient8589"><stop id="stop8591" offset="0" style="stop-color:#fefefe;stop-opacity:1"/><stop id="stop8593" offset="1" style="stop-color:#cbcbcb;stop-opacity:1"/></linearGradient><radialGradient id="radialGradient4055" cx="35.223" cy="4.242" r="8.952" fx="35.223" fy="4.242" gradientTransform="matrix(-0.93534075,0.81974018,-1.0404113,-0.93314779,73.505745,-21.418824)" gradientUnits="userSpaceOnUse" xlink:href="#linearGradient4053"/><linearGradient id="linearGradient5658" x1="37.408" x2="33.666" y1="5.142" y2="17.31" gradientTransform="matrix(0.89189189,0,0,1.1351351,2.5945999,-4.7432314)" gradientUnits="userSpaceOnUse" xlink:href="#linearGradient6129"/></defs><metadata id="metadata3906"/><rect id="rect2879" width="32.508" height="3.57" x="7.738" y="42.43" style="opacity:.3;fill:url(#linearGradient3118);fill-opacity:1;fill-rule:nonzero;stroke:none;stroke-width:1;marker:none;visibility:visible;display:inline;overflow:visible"/><path id="path2881" d="m 7.7378475,42.430102 c 0,0 0,3.569856 0,3.569856 -1.1865002,0.0067 -2.8683795,-0.799823 -2.8683795,-1.785158 0,-0.985333 1.3240446,-1.784697 2.8683795,-1.784698 z" style="opacity:.3;fill:url(#radialGradient3115);fill-opacity:1;fill-rule:nonzero;stroke:none;stroke-width:1;marker:none;visibility:visible;display:inline;overflow:visible"/><path id="path2883" d="m 40.246148,42.430102 c 0,0 0,3.569856 0,3.569856 1.1865,0.0067 2.86838,-0.799823 2.86838,-1.785158 0,-0.985333 -1.324045,-1.784697 -2.86838,-1.784698 z" style="opacity:.3;fill:url(#radialGradient3112);fill-opacity:1;fill-rule:nonzero;stroke:none;stroke-width:1;marker:none;visibility:visible;display:inline;overflow:visible"/><path id="path4160" d="m 7,1.0000001 c 4.23659,0 13.250512,8.102e-4 21.20353,0.00155 1.274005,0 12.796436,7.9271219 12.796438,9.7175115 L 41,44 H 7 Z" style="display:inline;fill:url(#linearGradient3109);fill-opacity:1;stroke:none"/><path id="path3920" d="M 20.271484 1.0019531 A 15.836925 8.2492475 35.119375 0 0 29.681641 13.787109 A 15.836925 8.2492475 35.119375 0 0 41 18.0625 L 41 10.71875 C 40.999998 8.92836 29.47713 1.0019531 28.203125 1.0019531 C 25.228069 1.0016764 23.237843 1.0022035 20.271484 1.0019531 z" style="font-variation-settings:normal;opacity:.28871963;vector-effect:none;fill:url(#radialGradient4055);fill-opacity:1;stroke:none;stroke-width:.999999;stroke-linecap:butt;stroke-linejoin:miter;stroke-miterlimit:4;stroke-dasharray:none;stroke-dashoffset:0;stroke-opacity:1;-inkscape-stroke:none;stop-color:#000;stop-opacity:1"/><path id="path4160-6-1" d="m 6.4999605,0.4999623 c 4.3722215,0 13.9271505,8.8561e-4 22.1257215,0.001691 1.902806,0 12.874328,7.8557059 12.874328,10.0653907 l 2.9e-5,33.932994 H 6.4999605 V 0.5001457 Z" style="display:inline;fill:none;stroke:url(#linearGradient3170);stroke-width:.999922;stroke-linecap:butt;stroke-linejoin:round;stroke-miterlimit:4;stroke-dasharray:none;stroke-dashoffset:0;stroke-opacity:1"/><path id="rect6741-1" d="M 40.5,43.5 H 7.5 V 1.5000002 h 21.199326 c 1.249357,0 11.800674,7.339339 11.800674,9.2436328 z" style="fill:none;stroke:url(#linearGradient3106);stroke-width:1;stroke-linecap:round;stroke-linejoin:miter;stroke-miterlimit:4;stroke-dasharray:none;stroke-dashoffset:0;stroke-opacity:1"/><path id="path4474-6-1" d="M 25.091797 1.0019531 L 25.041016 3 C 25.514559 3 25.798875 3.2197277 26.164062 3.8710938 C 26.529251 4.5224597 26.81118 5.5371521 26.976562 6.578125 C 27.307327 8.6600708 27.224609 10.802734 27.224609 10.802734 A 0.99995264 0.99995264 0 0 0 28.355469 11.833984 C 28.355469 11.833984 31.485589 11.422106 34.554688 11.570312 C 36.089236 11.644417 37.60287 11.873092 38.607422 12.287109 C 39.109698 12.494118 39.471871 12.743316 39.681641 12.982422 C 39.891411 13.221527 39.982422 13.429914 39.982422 13.78125 A 1 1 0 0 0 41 14.777344 L 41 10.71875 C 40.999998 9.0333856 30.791829 1.913894 28.53125 1.0839844 C 27.766511 1.0662473 25.527247 1.0243584 25.091797 1.0019531 z" style="font-variation-settings:normal;display:inline;opacity:.07;vector-effect:none;fill:#000;fill-opacity:1;fill-rule:evenodd;stroke:none;stroke-width:.999998;stroke-linecap:butt;stroke-linejoin:miter;stroke-miterlimit:4;stroke-dasharray:none;stroke-dashoffset:0;stroke-opacity:1;-inkscape-stroke:none;stop-color:#000;stop-opacity:1"/><path id="path4474-6" d="m 25.0413,2 c 3.553221,0 3.181125,8.844696 3.181125,8.844696 0,0 12.759141,-1.7066308 12.759141,2.936037 0,-1.131196 0.09575,-2.367327 -0.149194,-2.720297 C 39.072382,8.5244628 31.470576,2.8337474 28.725456,2.0879343 28.159884,2.0732543 25.606204,2.0292133 25.0413,2.0001473 Z" style="display:inline;fill:#000;fill-opacity:1;fill-rule:evenodd;stroke:none;stroke-width:.999998;font-variation-settings:normal;opacity:.15;vector-effect:none;stroke-linecap:butt;stroke-linejoin:miter;stroke-miterlimit:4;stroke-dasharray:none;stroke-dashoffset:0;stroke-opacity:1;-inkscape-stroke:none;stop-color:#000;stop-opacity:1"/><path id="path4474" d="m 25.0413,1.0000001 c 3.553221,0 3.181125,8.8446958 3.181125,8.8446958 0,0 12.759141,-1.7066306 12.759141,2.9360371 0,-1.131196 0.09575,-2.367327 -0.149194,-2.720297 C 39.072382,7.5244629 31.470576,1.8337475 28.725456,1.0879344 28.159884,1.0732544 25.606204,1.0292134 25.0413,1.0001474 Z" style="display:inline;fill:url(#linearGradient3078);fill-opacity:1;fill-rule:evenodd;stroke:none;stroke-width:.999998"/><path id="rect6741-1-2" d="M 28.699326,1.5000002 C 29.948683,1.5000002 40.5,8.8393392 40.5,10.743633" style="fill:none;stroke:url(#linearGradient5658);stroke-width:1;stroke-linecap:round;stroke-linejoin:miter;stroke-miterlimit:4;stroke-dasharray:none;stroke-dashoffset:0;stroke-opacity:1"/></svg>