<svg xmlns="http://www.w3.org/2000/svg" xmlns:svg="http://www.w3.org/2000/svg" xmlns:xlink="http://www.w3.org/1999/xlink" id="svg4601" width="128" height="128" version="1.1"><defs id="defs4603"><linearGradient id="linearGradient3142" x1="25.525" x2="25.525" y1="35.006" y2="15.738" gradientTransform="matrix(1.9289072,0,0,1.6548366,17.706642,4.958306)" gradientUnits="userSpaceOnUse" spreadMethod="pad" xlink:href="#linearGradient3163"/><linearGradient id="linearGradient3163"><stop id="stop3165" offset="0" style="stop-color:#969696;stop-opacity:1"/><stop id="stop3167" offset=".583" style="stop-color:#858585;stop-opacity:.63478261"/><stop id="stop3169" offset="1" style="stop-color:#939393;stop-opacity:0"/></linearGradient><linearGradient id="linearGradient3224" x1="24" x2="24" y1="5" y2="43" gradientTransform="matrix(2.7297298,0,0,2.7297297,-1.513512,1.48652)" gradientUnits="userSpaceOnUse" xlink:href="#linearGradient3924"/><linearGradient id="linearGradient3924"><stop id="stop3926" offset="0" style="stop-color:#fff;stop-opacity:1"/><stop id="stop3928" offset=".063" style="stop-color:#fff;stop-opacity:.23529412"/><stop id="stop3930" offset=".951" style="stop-color:#fff;stop-opacity:.15686275"/><stop id="stop3932" offset="1" style="stop-color:#fff;stop-opacity:.39215687"/></linearGradient><linearGradient id="linearGradient4021" x1="24" x2="24" y1="5" y2="43" gradientTransform="matrix(2.2432433,0,0,1.3783785,10.162169,20.918936)" gradientUnits="userSpaceOnUse" xlink:href="#linearGradient3924-803-0"/><linearGradient id="linearGradient3924-803-0"><stop id="stop3252-06" offset="0" style="stop-color:#fff;stop-opacity:1"/><stop id="stop3254-1" offset=".063" style="stop-color:#fff;stop-opacity:.23529412"/><stop id="stop3256-0" offset=".951" style="stop-color:#fff;stop-opacity:.15686275"/><stop id="stop3258-2" offset="1" style="stop-color:#fff;stop-opacity:.39215687"/></linearGradient><linearGradient id="linearGradient4024" x1="16.626" x2="20.055" y1="15.298" y2="24.628" gradientTransform="matrix(1.8236406,0,0,1.8434142,20.147314,17.470026)" gradientUnits="userSpaceOnUse" xlink:href="#linearGradient8265-821-176-38-919-66-249-7-7-6"/><linearGradient id="linearGradient8265-821-176-38-919-66-249-7-7-6"><stop id="stop2687-1-9-9" offset="0" style="stop-color:#fff;stop-opacity:1"/><stop id="stop2689-5-4-3" offset="1" style="stop-color:#fff;stop-opacity:0"/></linearGradient><linearGradient id="linearGradient4027" x1="25.525" x2="25.525" y1="30.189" y2="15.738" gradientTransform="matrix(1.9289072,0,0,1.6548366,17.706642,3.330726)" gradientUnits="userSpaceOnUse" spreadMethod="reflect" xlink:href="#linearGradient3333-4-4"/><linearGradient id="linearGradient3333-4-4"><stop id="stop3335-4-6" offset="0" style="stop-color:#fff;stop-opacity:1"/><stop id="stop3337-7-2" offset="1" style="stop-color:#fff;stop-opacity:0"/></linearGradient><linearGradient id="linearGradient4030" x1="23.904" x2="23.904" y1="35.75" y2="20.443" gradientTransform="matrix(1.9250708,0,0,1.7660544,17.983934,3.267666)" gradientUnits="userSpaceOnUse" xlink:href="#linearGradient3495"/><linearGradient id="linearGradient3495"><stop id="stop3497" offset="0" style="stop-color:#000;stop-opacity:1"/><stop id="stop3874" offset=".5" style="stop-color:#000;stop-opacity:.49803922"/><stop id="stop3499" offset="1" style="stop-color:#000;stop-opacity:0"/></linearGradient><linearGradient id="linearGradient4033" x1="25.525" x2="25.525" y1="30.189" y2="15.738" gradientTransform="matrix(1.9289072,0,0,1.6548366,17.706642,6.666956)" gradientUnits="userSpaceOnUse" spreadMethod="reflect" xlink:href="#linearGradient3333-4"/><linearGradient id="linearGradient3333-4"><stop id="stop3335-4" offset="0" style="stop-color:#fff;stop-opacity:1"/><stop id="stop3337-7" offset="1" style="stop-color:#fff;stop-opacity:0"/></linearGradient><linearGradient id="linearGradient6722" x1="25.525" x2="25.525" y1="30.189" y2="44.139" gradientTransform="matrix(1.9289072,0,0,1.6548366,17.706642,4.958306)" gradientUnits="userSpaceOnUse" spreadMethod="pad" xlink:href="#linearGradient3866"/><linearGradient id="linearGradient3866"><stop id="stop3868" offset="0" style="stop-color:#a0a0a0;stop-opacity:1"/><stop id="stop3872" offset=".5" style="stop-color:#8f8f8f;stop-opacity:.63478261"/><stop id="stop3870" offset="1" style="stop-color:#9d9d9d;stop-opacity:0"/></linearGradient><linearGradient id="linearGradient6725" x1="20.053" x2="20.053" y1="10.637" y2="45.244" gradientTransform="matrix(1.8666667,0,0,1.5757573,19.200003,9.878796)" gradientUnits="userSpaceOnUse" xlink:href="#linearGradient3600"/><linearGradient id="linearGradient3600"><stop id="stop3602" offset="0" style="stop-color:#f4f4f4;stop-opacity:1"/><stop id="stop3604" offset="1" style="stop-color:#dbdbdb;stop-opacity:1"/></linearGradient><radialGradient id="radialGradient2455-1" cx="4.993" cy="43.5" r="2.5" fx="4.993" fy="43.5" gradientTransform="matrix(2.003784,0,0,1.4,27.98813,-17.4)" gradientUnits="userSpaceOnUse" xlink:href="#linearGradient3688-166-749-5"/><linearGradient id="linearGradient3688-166-749-5"><stop id="stop2883-0" offset="0" style="stop-color:#181818;stop-opacity:1"/><stop id="stop2885-5" offset="1" style="stop-color:#181818;stop-opacity:0"/></linearGradient><radialGradient id="radialGradient2457-5" cx="4.993" cy="43.5" r="2.5" fx="4.993" fy="43.5" gradientTransform="matrix(2.003784,0,0,1.4,-20.01187,-104.4)" gradientUnits="userSpaceOnUse" xlink:href="#linearGradient3688-464-309-8"/><linearGradient id="linearGradient3688-464-309-8"><stop id="stop2889-9" offset="0" style="stop-color:#181818;stop-opacity:1"/><stop id="stop2891-4" offset="1" style="stop-color:#181818;stop-opacity:0"/></linearGradient><linearGradient id="linearGradient2459-7" x1="25.058" x2="25.058" y1="47.028" y2="39.999" gradientUnits="userSpaceOnUse" xlink:href="#linearGradient3702-501-757-0"/><linearGradient id="linearGradient3702-501-757-0"><stop id="stop2895-0" offset="0" style="stop-color:#181818;stop-opacity:0"/><stop id="stop2897-2" offset=".5" style="stop-color:#181818;stop-opacity:1"/><stop id="stop2899-6" offset="1" style="stop-color:#181818;stop-opacity:0"/></linearGradient><linearGradient id="linearGradient3811"><stop id="stop3813" offset="0" style="stop-color:#000;stop-opacity:1"/><stop id="stop3815" offset="1" style="stop-color:#000;stop-opacity:0"/></linearGradient><radialGradient id="radialGradient4599" cx="-4.029" cy="93.468" r="35.338" fx="-4.029" fy="93.468" gradientTransform="matrix(1.5563924,0,0,0.16978827,70.270358,102.13029)" gradientUnits="userSpaceOnUse" xlink:href="#linearGradient3811"/><linearGradient id="linearGradient27687"><stop id="stop27683" offset="0" style="stop-color:#fef5dc;stop-opacity:1"/><stop id="stop27685" offset="1" style="stop-color:#fdde76;stop-opacity:1"/></linearGradient><linearGradient id="linearGradient1909"><stop style="stop-color:#ad5f00;stop-opacity:.95970404" id="stop1905" offset="0"/><stop style="stop-color:#ad5f00;stop-opacity:.0554396" id="stop1907" offset="1"/></linearGradient><linearGradient id="linearGradient841"><stop id="stop837" offset="0" style="stop-color:#ffe16b;stop-opacity:1"/><stop id="stop839" offset="1" style="stop-color:#f9c440;stop-opacity:1"/></linearGradient><linearGradient id="linearGradient1373" x1="-42.279" x2="-42.279" y1="-2.108" y2="75.259" gradientTransform="matrix(-1.3333333,0,0,1.3333333,11.903136,18.289654)" gradientUnits="userSpaceOnUse" xlink:href="#linearGradient841"/><linearGradient id="linearGradient3099" x1="-109.42" x2="-109.42" y1="76.807" y2="-10.49" gradientTransform="matrix(1,0,0,0.97368421,174.42046,26.214165)" gradientUnits="userSpaceOnUse" xlink:href="#linearGradient27687"/><linearGradient id="linearGradient8670" x1="15.971" x2="23.471" y1="56.87" y2="56.87" gradientTransform="matrix(1.3333334,0,0,1.7087673,-9.294159,7.821816)" gradientUnits="userSpaceOnUse" xlink:href="#linearGradient1909"/><linearGradient id="linearGradient8847" x1="15.971" x2="23.471" y1="56.87" y2="56.87" gradientTransform="matrix(-1.3333334,0,0,1.7087673,137.79416,7.821816)" gradientUnits="userSpaceOnUse" xlink:href="#linearGradient1909"/></defs><metadata id="metadata4606"/><path style="color:#000;display:inline;overflow:visible;visibility:visible;opacity:.2;fill:url(#radialGradient4599);fill-opacity:1;fill-rule:nonzero;stroke:none;stroke-width:1;marker:none;enable-background:accumulate" id="path3041" d="M 119,118 A 54.999999,5.9999999 0 1 1 9.0000016,118 54.999999,5.9999999 0 1 1 119,118 Z"/><g style="display:inline" id="g2036" transform="matrix(2.6999989,0,0,0.55555607,-0.80000186,94.888878)"><g style="opacity:.4" id="g3712" transform="matrix(1.052632,0,0,1.285713,-1.263158,-13.42854)"><rect style="fill:url(#radialGradient2455-1);fill-opacity:1;stroke:none" id="rect2801" width="5" height="7" x="38" y="40"/><rect style="fill:url(#radialGradient2457-5);fill-opacity:1;stroke:none" id="rect3696" width="5" height="7" x="-10" y="-47" transform="scale(-1,-1)"/><rect style="fill:url(#linearGradient2459-7);fill-opacity:1;stroke:none" id="rect3700" width="28" height="7" x="10" y="40"/></g></g><rect style="color:#000;clip-rule:nonzero;display:inline;overflow:visible;visibility:visible;opacity:1;isolation:auto;mix-blend-mode:normal;color-interpolation:sRGB;color-interpolation-filters:linearRGB;solid-color:#000;solid-opacity:1;fill:url(#linearGradient1373);fill-opacity:1;fill-rule:nonzero;stroke:#ad5f00;stroke-width:1;stroke-linecap:round;stroke-linejoin:round;stroke-miterlimit:4;stroke-dasharray:none;stroke-dashoffset:0;stroke-opacity:.501961;marker:none;color-rendering:auto;image-rendering:auto;shape-rendering:auto;text-rendering:auto;enable-background:accumulate;font-variation-settings:normal;vector-effect:none;-inkscape-stroke:none;stop-color:#000;stop-opacity:1" id="rect5505-21" width="103" height="103" x="12.5" y="15.5" rx="10" ry="10"/><path style="color:#000;font-variation-settings:normal;clip-rule:nonzero;display:inline;overflow:visible;visibility:visible;isolation:auto;mix-blend-mode:normal;color-interpolation:sRGB;color-interpolation-filters:linearRGB;solid-color:#000;solid-opacity:1;vector-effect:none;fill:url(#linearGradient8670);fill-opacity:1;fill-rule:nonzero;stroke:none;stroke-width:1;stroke-linecap:butt;stroke-linejoin:miter;stroke-miterlimit:4;stroke-dasharray:none;stroke-dashoffset:0;stroke-opacity:1;-inkscape-stroke:none;marker:none;color-rendering:auto;image-rendering:auto;shape-rendering:auto;text-rendering:auto;enable-background:accumulate;stop-color:#000;opacity:.2;stop-opacity:1" id="rect5505-21-5" d="M 12.5,78.908203 V 108.5 c 0,5.54 4.46,10 10,10 V 78.947266 h -9.203125 c -0.269079,0 -0.533279,-0.01841 -0.796875,-0.03906 z"/><path style="color:#000;font-variation-settings:normal;clip-rule:nonzero;display:inline;overflow:visible;visibility:visible;opacity:.2;isolation:auto;mix-blend-mode:normal;color-interpolation:sRGB;color-interpolation-filters:linearRGB;solid-color:#000;solid-opacity:1;vector-effect:none;fill:url(#linearGradient8847);fill-opacity:1;fill-rule:nonzero;stroke:none;stroke-width:1;stroke-linecap:butt;stroke-linejoin:miter;stroke-miterlimit:4;stroke-dasharray:none;stroke-dashoffset:0;stroke-opacity:1;-inkscape-stroke:none;marker:none;color-rendering:auto;image-rendering:auto;shape-rendering:auto;text-rendering:auto;enable-background:accumulate;stop-color:#000" id="rect5505-21-5-6" d="M 116,78.908203 V 108.5 c 0,5.54 -4.46,10 -10,10 V 78.947266 h 9.20313 c 0.26907,0 0.53327,-0.01841 0.79687,-0.03906 z"/><rect style="font-variation-settings:normal;opacity:1;vector-effect:none;fill:#e4ba39;fill-opacity:1;stroke:none;stroke-width:.999999;stroke-linecap:round;stroke-linejoin:round;stroke-miterlimit:4;stroke-dasharray:none;stroke-dashoffset:0;stroke-opacity:1;-inkscape-stroke:none;marker:none;stop-color:#000;stop-opacity:1" id="rect3243" width="90" height="58" x="19" y="22" rx="0" ry="0"/><path style="color:#000;display:inline;overflow:visible;visibility:visible;fill:#ccc;fill-opacity:1;fill-rule:nonzero;stroke:none;stroke-width:1;marker:none;enable-background:accumulate" id="rect4813" d="M 36.602843,80 93.220022,80 88,83.477903 88,93 40,93 40,83.505523 Z"/><rect style="display:inline;overflow:visible;visibility:visible;opacity:.2;fill:#000;fill-opacity:1;fill-rule:evenodd;stroke:none;stroke-width:.99999994;marker:none;enable-background:accumulate" id="rect2396-9-0" width="86" height="54" x="21" y="27" rx="2.807" ry="2.807"/><rect style="display:inline;overflow:visible;visibility:visible;fill:url(#linearGradient6725);fill-opacity:1;fill-rule:evenodd;stroke:none;stroke-width:.99999994;marker:none;enable-background:accumulate" id="rect2396-9" width="84" height="52" x="22" y="28" rx="2" ry="2"/><path style="display:inline;overflow:visible;visibility:visible;fill:none;stroke:url(#linearGradient6722);stroke-width:.99999982;stroke-linecap:butt;stroke-linejoin:miter;stroke-miterlimit:4;stroke-dasharray:none;stroke-dashoffset:0;stroke-opacity:1;marker:none;enable-background:accumulate" id="path3341-2" d="m 53.692816,55.430826 -25.993101,22.55949 z m 20.675475,0.10342 26.173939,22.04128 z"/><path style="display:inline;overflow:visible;visibility:visible;opacity:.7;fill:none;stroke:url(#linearGradient4033);stroke-width:.99999982;stroke-linecap:butt;stroke-linejoin:miter;stroke-miterlimit:4;stroke-dasharray:none;stroke-dashoffset:0;stroke-opacity:1;marker:none;enable-background:accumulate" id="path3341-2-6" d="M 53.692816,57.139466 29.875,77.500006 Z m 20.675475,0.10342 23.756706,20.25712 z"/><path style="opacity:.1;fill:none;stroke:url(#linearGradient4030);stroke-width:.99999982;stroke-linecap:butt;stroke-linejoin:miter;stroke-miterlimit:4;stroke-dasharray:none;stroke-opacity:1" id="path3493" d="m 34.029647,41.082296 30.155984,23.16771 29.785548,-23.16771"/><path style="display:inline;overflow:visible;visibility:visible;opacity:.7;fill:none;stroke:url(#linearGradient4027);stroke-width:.99999982;stroke-linecap:butt;stroke-linejoin:miter;stroke-miterlimit:4;stroke-dasharray:none;stroke-dashoffset:0;stroke-opacity:1;marker:none;enable-background:accumulate" id="path3926" d="m 23.949946,30.408816 40.050467,30.84119 40.655747,-31.04858"/><path style="opacity:.2;fill:url(#linearGradient4024);fill-opacity:1;fill-rule:evenodd;stroke:none" id="path3333-7" d="m 24.690028,28.000006 c -1.50137,0 -2.690028,1.29266 -2.690028,2.55 l 0.02794,31.45 C 24.444415,61.965766 104.16582,49.466886 106,48.865676 l 0,-18.31567 c 0,-0.96108 -1.17419,-2.55 -2.47421,-2.55 l -78.835765,0 z"/><rect style="fill:none;stroke:url(#linearGradient4021);stroke-width:.99999982;stroke-linecap:round;stroke-linejoin:round;stroke-miterlimit:4;stroke-dasharray:none;stroke-dashoffset:0;stroke-opacity:1" id="rect6741-1-5" width="83" height="51" x="22.5" y="28.5" rx="1.499" ry="1.499"/><path id="path4815-2-69" d="m 40.000189,92.500006 h 47.999809 m -47.999809,-2 h 47.999809 m -47.999809,-2 h 47.999809 m -47.999809,-2 h 47.999809 m -47.999809,-2 h 47.999809 m -47.999809,-2 h 47.999809" style="opacity:.17;fill:none;stroke:#000;stroke-width:1px;stroke-linecap:butt;stroke-linejoin:miter;stroke-opacity:1"/><path style="display:inline;overflow:visible;visibility:visible;fill:none;stroke:url(#linearGradient3142);stroke-width:.99999982;stroke-linecap:butt;stroke-linejoin:miter;stroke-miterlimit:4;stroke-dasharray:none;stroke-dashoffset:0;stroke-opacity:1;marker:none;enable-background:accumulate" id="path3341-2-3" d="m 23.949946,32.036406 40.050467,30.84118 40.655747,-31.04857"/><path id="rect5505-21-1" d="M 22.5,16 C 17.237,16 13,20.237 13,25.5 v 51 c 0,5.263 4.237,9.5 9.5,9.5 h 14 c 1.939,0 3.5,1.561 3.5,3.5 v -6 C 40,81.561 38.439,80 36.5,80 h -14 C 20.561,80 19,78.439 19,76.5 v -51 C 19,23.561 20.561,22 22.5,22 h 83 c 1.939,0 3.5,1.561 3.5,3.5 v 51 c 0,1.939 -1.561,3.5 -3.5,3.5 h -14 C 89.561,80 88,81.561 88,83.5 v 6 C 88,87.561 89.561,86 91.5,86 h 14 c 5.263,0 9.5,-4.237 9.5,-9.5 v -51 C 115,20.237 110.763,16 105.5,16 Z M 88,89.5 c 0,1.939 -1.561,3.5 -3.5,3.5 h -41 C 41.561,93 40,91.439 40,89.5 v 6 c 0,1.939 1.561,3.5 3.5,3.5 h 41 c 1.939,0 3.5,-1.561 3.5,-3.5 z" style="color:#000;font-variation-settings:normal;clip-rule:nonzero;display:inline;overflow:visible;visibility:visible;opacity:1;isolation:auto;mix-blend-mode:normal;color-interpolation:sRGB;color-interpolation-filters:linearRGB;solid-color:#000;solid-opacity:1;vector-effect:none;fill:url(#linearGradient3099);fill-opacity:1;fill-rule:nonzero;stroke:none;stroke-width:.999997;stroke-linecap:butt;stroke-linejoin:miter;stroke-miterlimit:4;stroke-dasharray:none;stroke-dashoffset:0;stroke-opacity:1;-inkscape-stroke:none;marker:none;color-rendering:auto;image-rendering:auto;shape-rendering:auto;text-rendering:auto;enable-background:accumulate;stop-color:#000;stop-opacity:1"/><path id="rect5437" d="M 22.5 22.5 C 20.838 22.5 19.5 23.838 19.5 25.5 L 19.5 76.5 C 19.5 78.162 20.838 79.5 22.5 79.5 L 36.5 79.5 C 38.716 79.5 40.5 81.284 40.5 83.5 L 40.5 84 L 40.5 89.5 C 40.5 91.162 41.838 92.5 43.5 92.5 L 84.5 92.5 C 86.162 92.5 87.5 91.162 87.5 89.5 L 87.5 84 L 87.5 83.5 C 87.5 81.284 89.284 79.5 91.5 79.5 L 105.5 79.5 C 107.162 79.5 108.5 78.162 108.5 76.5 L 108.5 25.5 C 108.5 23.838 107.162 22.5 105.5 22.5 L 22.5 22.5 z" style="font-variation-settings:normal;opacity:.3;vector-effect:none;fill:none;fill-opacity:1;stroke:#ad5f00;stroke-width:.999996;stroke-linecap:round;stroke-linejoin:round;stroke-miterlimit:4;stroke-dasharray:none;stroke-dashoffset:0;stroke-opacity:1;-inkscape-stroke:none;marker:none;stop-color:#000;stop-opacity:1"/><rect style="opacity:.8;fill:none;stroke:url(#linearGradient3224);stroke-width:1;stroke-linecap:round;stroke-linejoin:round;stroke-miterlimit:4;stroke-dasharray:none;stroke-dashoffset:0;stroke-opacity:1" id="rect6741-7" width="101" height="101" x="13.5" y="16.5" rx="9" ry="9"/></svg>