<svg xmlns="http://www.w3.org/2000/svg" xmlns:svg="http://www.w3.org/2000/svg" xmlns:xlink="http://www.w3.org/1999/xlink" id="svg57" width="16" height="16" version="1.1"><metadata id="metadata63"/><defs id="defs61"><linearGradient id="linearGradient940" x1="24" x2="24" y1="6.474" y2="41.526" gradientTransform="matrix(0.40540511,0,0,0.51351351,2.269687,-0.324319)" gradientUnits="userSpaceOnUse"><stop id="stop932" offset="0" stop-color="#fff"/><stop id="stop934" offset="0" stop-color="#fff" stop-opacity=".235"/><stop id="stop936" offset="1" stop-color="#fff" stop-opacity=".157"/><stop id="stop938" offset="1" stop-color="#fff" stop-opacity=".392"/></linearGradient><linearGradient id="linearGradient930" x1="24" x2="24" y1="6.474" y2="41.526" gradientTransform="matrix(0.40540511,0,0,0.51351351,2.269687,-0.324319)" gradientUnits="userSpaceOnUse"><stop id="stop922" offset="0" stop-color="#fff"/><stop id="stop924" offset="0" stop-color="#fff" stop-opacity=".235"/><stop id="stop926" offset="1" stop-color="#fff" stop-opacity=".157"/><stop id="stop928" offset="1" stop-color="#fff" stop-opacity=".392"/></linearGradient><linearGradient id="linearGradient874" x1="25.132" x2="25.132" y1=".985" y2="47.013" gradientTransform="matrix(0.48571543,0,0,0.45629666,-34.78968,-5.734851)" gradientUnits="userSpaceOnUse"><stop id="stop870" offset="0" stop-color="#f4f4f4" style="stop-color:#fafafa;stop-opacity:1"/><stop id="stop872" offset="1" stop-color="#dbdbdb" style="stop-color:#d4d4d4;stop-opacity:1"/></linearGradient></defs><linearGradient id="a" x1="25.132" x2="25.132" y1=".985" y2="47.013" gradientTransform="matrix(0.48571543,0,0,0.45629666,-34.78968,-5.734851)" gradientUnits="userSpaceOnUse"><stop id="stop2" offset="0" stop-color="#f4f4f4"/><stop id="stop4" offset="1" stop-color="#dbdbdb"/></linearGradient><linearGradient id="b" x1="-51.786" x2="-51.786" y1="50.786" y2="2.906" gradientTransform="matrix(0.25378586,0,0,0.30501865,-43.521986,-5.539135)" gradientUnits="userSpaceOnUse"><stop id="stop7" offset="0" stop-opacity=".34"/><stop id="stop9" offset="1" stop-opacity=".247"/></linearGradient><linearGradient id="c" x1="24" x2="24" y1="6.474" y2="41.526" gradientTransform="matrix(0.40540511,0,0,0.51351351,2.269687,-0.324319)" gradientUnits="userSpaceOnUse"><stop id="stop12" offset="0" stop-color="#fff"/><stop id="stop14" offset=".058" stop-color="#fff" stop-opacity=".235"/><stop id="stop16" offset="1" stop-color="#fff" stop-opacity=".157"/><stop id="stop18" offset="1" stop-color="#fff" stop-opacity=".392"/></linearGradient><linearGradient id="d" x1="-74" x2="-74" y1="-208" y2="-200" gradientUnits="userSpaceOnUse" xlink:href="#b"/><linearGradient id="e" x1="-74" x2="-74" y1="-202.125" y2="-205.875" gradientTransform="matrix(0.60000006,0,0,-0.79999524,33.117549,-153.69891)" gradientUnits="userSpaceOnUse" xlink:href="#linearGradient940"/><linearGradient id="f" x1="-70" x2="-70" y1="-200" y2="-208" gradientTransform="matrix(0.66666667,0,0,-0.85714286,38.084328,-165.35714)" gradientUnits="userSpaceOnUse" xlink:href="#linearGradient874"/><linearGradient id="g" x1="-480" x2="-480" y1="129" y2="137" gradientUnits="userSpaceOnUse" xlink:href="#b"/><linearGradient id="h" x1="-476" x2="-476" y1="137" y2="129" gradientTransform="matrix(0.66666216,0,0,-0.713883,335.83119,113.94506)" gradientUnits="userSpaceOnUse" xlink:href="#linearGradient874"/><linearGradient id="i" x1="-479" x2="-479" y1="134.667" y2="131.333" gradientTransform="matrix(0.62499379,0,0,-0.59996347,315.80964,98.795153)" gradientUnits="userSpaceOnUse" xlink:href="#linearGradient930"/><linearGradient id="j"><stop id="stop27" offset="0" stop-color="#ce5c00"/><stop id="stop29" offset="1" stop-color="#ce5c00" stop-opacity="0"/></linearGradient><linearGradient id="k" x1="187.609" x2="186.937" y1="489.359" y2="489.359" gradientTransform="rotate(180,197.99995,490.5)" gradientUnits="userSpaceOnUse" xlink:href="#j"/><linearGradient id="l"><stop id="stop33" offset="0" stop-color="#fcaf3e"/><stop id="stop35" offset="1" stop-color="#fcaf3e" stop-opacity="0"/></linearGradient><linearGradient id="m" x1="187.816" x2="187.172" y1="489.547" y2="489.547" gradientTransform="rotate(180,197.99995,490.5)" gradientUnits="userSpaceOnUse" xlink:href="#l"/><linearGradient id="n" x1="187.609" x2="186.937" y1="489.359" y2="489.359" gradientUnits="userSpaceOnUse" xlink:href="#j"/><linearGradient id="o" x1="187.816" x2="187.172" y1="489.547" y2="489.547" gradientUnits="userSpaceOnUse" xlink:href="#l"/><path id="rect1678" d="M 2 1 C 1.446 1 1 1.446 1 2 L 1 3 C 1 3.2373121 1.0835944 3.4538897 1.2207031 3.625 C 1.2436331 3.6536163 1.2670713 3.6811338 1.2929688 3.7070312 C 1.2942761 3.7083386 1.2955605 3.7096374 1.296875 3.7109375 L 6 9 L 6 14 C 6 14.554 6.892 15 8 15 C 9.108 15 10 14.554 10 14 L 10 9 L 14.785156 3.625 L 14.78125 3.625 C 14.917911 3.4540318 15 3.2368831 15 3 L 15 2 C 15 1.446 14.554 1 14 1 L 2 1 z" style="opacity:1;fill:#555761;fill-opacity:1;stroke:none;stroke-width:4;stroke-linecap:round;stroke-linejoin:round;-inkscape-stroke:none;stop-color:#000;font-variation-settings:normal;vector-effect:none;stroke-miterlimit:4;stroke-dasharray:none;stroke-dashoffset:0;stroke-opacity:1;stop-opacity:1"/></svg>